<svg id="Слой_1" data-name="Слой 1" xmlns="http://www.w3.org/2000/svg" viewBox="0 0 142.01 33"><defs><style>.cls-1{fill:#fff;}</style></defs><path class="cls-1" d="M0,6.74V32.61H3.76V13.87H4l7.72,18.7h3.12l7.72-18.68h.25V32.61h3.75V6.74H21.77L13.44,26.85h-.31L4.79,6.74Z" transform="translate(0 0)"/><path class="cls-1" d="M41.13,33c4.28,0,7.31-2.08,8.18-5.24l-3.62-.65a4.45,4.45,0,0,1-4.52,2.77c-3.27,0-5.47-2.1-5.57-5.84h14V22.7c0-7-4.25-9.75-8.7-9.75-5.47,0-9.07,4.12-9.07,10.08S35.34,33,41.13,33ZM35.61,21.21a5.24,5.24,0,0,1,5.28-5.14,4.82,4.82,0,0,1,4.93,4.71c0,.14,0,.29,0,.43Z" transform="translate(0 0)"/><path class="cls-1" d="M68.51,17.94c-.79-3-3.18-5-7.43-5-4.43,0-7.58,2.31-7.58,5.75,0,2.75,1.69,4.59,5.37,5.39l3.33.72c1.89.42,2.77,1.25,2.77,2.47,0,1.5-1.62,2.68-4.13,2.68-2.29,0-3.76-1-4.22-2.88l-3.69.55c.64,3.44,3.53,5.37,7.94,5.37,4.74,0,8-2.49,8-6,0-2.74-1.76-4.43-5.36-5.26L60.41,21c-2.16-.51-3.1-1.23-3.09-2.54C57.31,17,59,16,61.12,16a3.8,3.8,0,0,1,3.93,2.6Z" transform="translate(0 0)"/><path class="cls-1" d="M82.26,13.21h-4V8.56H74.41v4.65H71.54v3h2.87V27.69c0,3.53,2.71,5.23,5.73,5.17a7.49,7.49,0,0,0,2.48-.4l-.69-3.12a6.72,6.72,0,0,1-1.34.16c-1.24,0-2.35-.4-2.35-2.59V16.24h4Z" transform="translate(0 0)"/><path class="cls-1" d="M94.55,33c5.54,0,9.15-4,9.15-10s-3.61-10-9.15-10S85.4,17,85.4,23,89,33,94.55,33Zm0-3.17c-3.61,0-5.3-3.12-5.3-6.85s1.69-6.87,5.3-6.87,5.28,3.16,5.28,6.87-1.67,6.85-5.27,6.85Z" transform="translate(0 0)"/><path class="cls-1" d="M107.18,8.89h1V5.52h2.13l1.85,3.37h1.22l-2-3.56A2.35,2.35,0,0,0,113,2.91c0-1.52-.92-2.64-3-2.64h-2.94Zm1-4.31V1.2H110c1.42,0,2,.68,2,1.71s-.54,1.67-1.94,1.67Z" transform="translate(0 0)"/><path class="cls-1" d="M118.84,6.25A1.7,1.7,0,0,1,117.21,8h-.06a1.43,1.43,0,0,1-1.44-1.4s0-.1,0-.15v-4h-1V6.54c0,1.65.88,2.44,2.11,2.44a2,2,0,0,0,1.94-1.18h.07V8.89h1V2.43h-1Z" transform="translate(0 0)"/><path class="cls-1" d="M126.32,3.87A2.2,2.2,0,0,0,124,2.34c-1.39,0-2.41.78-2.41,1.87,0,.89.54,1.49,1.74,1.77l1.09.25c.66.15,1,.47,1,.91s-.59,1-1.53,1a1.4,1.4,0,0,1-1.52-1l-1,.23A2.25,2.25,0,0,0,123.89,9c1.52,0,2.55-.82,2.55-1.94,0-.9-.57-1.47-1.73-1.75l-1-.24c-.77-.19-1.12-.44-1.12-.94s.6-1,1.4-1a1.37,1.37,0,0,1,1.41.93Z" transform="translate(0 0)"/><path class="cls-1" d="M132.59,3.87a2.22,2.22,0,0,0-2.32-1.53c-1.37,0-2.4.78-2.4,1.87,0,.89.54,1.49,1.74,1.77l1.09.25c.66.15,1,.47,1,.91s-.59,1-1.53,1a1.4,1.4,0,0,1-1.52-1l-1,.23A2.25,2.25,0,0,0,130.16,9c1.52,0,2.55-.82,2.55-1.94,0-.9-.57-1.47-1.74-1.75l-1-.24c-.77-.19-1.12-.44-1.12-.94s.59-1,1.39-1a1.38,1.38,0,0,1,1.42.93Z" transform="translate(0 0)"/><path class="cls-1" d="M134.23,8.89h1V2.43h-1Zm.51-7.54a.7.7,0,0,0,.71-.68.69.69,0,0,0-.71-.67h0a.71.71,0,0,0-.72.67.72.72,0,0,0,.72.68Z" transform="translate(0 0)"/><path class="cls-1" d="M139,9a2,2,0,0,0,1.94-1H141v.87h1V4.63a2.15,2.15,0,0,0-2-2.3,2.06,2.06,0,0,0-.43,0A2.66,2.66,0,0,0,137,3.86l.95.33a1.75,1.75,0,0,1,1.7-1,1.2,1.2,0,0,1,1.35,1,1.61,1.61,0,0,1,0,.31h0c0,.48-.49.44-1.68.59s-2.54.43-2.54,1.91a2,2,0,0,0,2,2Zm.15-.89c-.8,0-1.38-.35-1.38-1s.7-1,1.49-1.1A5.16,5.16,0,0,0,141,5.64v.91a1.67,1.67,0,0,1-1.73,1.61h-.12Z" transform="translate(0 0)"/></svg>